<svg xmlns="http://www.w3.org/2000/svg" xmlns:xlink="http://www.w3.org/1999/xlink" xmlns:s="https://github.com/nturley/netlistsvg" width="511" height="435.5">
  <style>svg {
    stroke:#000;
    fill:none;
  }
  text {
    fill:#000;
    stroke:none;
    font-size:10px;
    font-weight: bold;
    font-family: "Courier New", monospace;
  }
  .nodelabel {
    text-anchor: middle;
  }
  .inputPortLabel {
    text-anchor: end;
  }
  .splitjoinBody {
    fill:#000;
  }</style>
  <g s:type="or" transform="translate(83,77)" s:width="30" s:height="25" id="cell_$or$/home/docs/checkouts/readthedocs.org/user_builds/sphinxcontrib-verilog-diagrams/checkouts/latest/docs/verilog/carry4-bits.v:5$3">
    <s:alias val="$or"/>
    <s:alias val="$logic_or"/>
    <s:alias val="$_OR_"/>
    <path d="M0,25 L0,25 L15,25 A15 12.5 0 0 0 15,0 L0,0" class="cell_$or$/home/docs/checkouts/readthedocs.org/user_builds/sphinxcontrib-verilog-diagrams/checkouts/latest/docs/verilog/carry4-bits.v:5$3"/>
    <path d="M0,0 A30 25 0 0 1 0,25" class="cell_$or$/home/docs/checkouts/readthedocs.org/user_builds/sphinxcontrib-verilog-diagrams/checkouts/latest/docs/verilog/carry4-bits.v:5$3"/>
    <g s:x="3" s:y="5" s:pid="A"/>
    <g s:x="3" s:y="20" s:pid="B"/>
    <g s:x="30" s:y="12.5" s:pid="Y"/>
  </g>
  <g s:type="mux" transform="translate(163,59.5)" s:width="20" s:height="40" id="cell_$techmap\muxcy0.$ternary$/home/docs/checkouts/readthedocs.org/user_builds/sphinxcontrib-verilog-diagrams/checkouts/latest/docs/verilog/muxcy.v:2$1">
    <s:alias val="$pmux"/>
    <s:alias val="$mux"/>
    <s:alias val="$_MUX_"/>
    <path d="M0,0 L20,10 L20,30 L0,40 Z" class="cell_$techmap\muxcy0.$ternary$/home/docs/checkouts/readthedocs.org/user_builds/sphinxcontrib-verilog-diagrams/checkouts/latest/docs/verilog/muxcy.v:2$1"/>
    <g s:x="0" s:y="10" s:pid="A"/>
    <g s:x="0" s:y="30" s:pid="B"/>
    <g s:x="10" s:y="35" s:pid="S"/>
    <g s:x="20" s:y="20" s:pid="Y"/>
  </g>
  <g s:type="mux" transform="translate(223,165.5)" s:width="20" s:height="40" id="cell_$techmap\muxcy1.$ternary$/home/docs/checkouts/readthedocs.org/user_builds/sphinxcontrib-verilog-diagrams/checkouts/latest/docs/verilog/muxcy.v:2$1">
    <s:alias val="$pmux"/>
    <s:alias val="$mux"/>
    <s:alias val="$_MUX_"/>
    <path d="M0,0 L20,10 L20,30 L0,40 Z" class="cell_$techmap\muxcy1.$ternary$/home/docs/checkouts/readthedocs.org/user_builds/sphinxcontrib-verilog-diagrams/checkouts/latest/docs/verilog/muxcy.v:2$1"/>
    <g s:x="0" s:y="10" s:pid="A"/>
    <g s:x="0" s:y="30" s:pid="B"/>
    <g s:x="10" s:y="35" s:pid="S"/>
    <g s:x="20" s:y="20" s:pid="Y"/>
  </g>
  <g s:type="mux" transform="translate(283,207.5)" s:width="20" s:height="40" id="cell_$techmap\muxcy2.$ternary$/home/docs/checkouts/readthedocs.org/user_builds/sphinxcontrib-verilog-diagrams/checkouts/latest/docs/verilog/muxcy.v:2$1">
    <s:alias val="$pmux"/>
    <s:alias val="$mux"/>
    <s:alias val="$_MUX_"/>
    <path d="M0,0 L20,10 L20,30 L0,40 Z" class="cell_$techmap\muxcy2.$ternary$/home/docs/checkouts/readthedocs.org/user_builds/sphinxcontrib-verilog-diagrams/checkouts/latest/docs/verilog/muxcy.v:2$1"/>
    <g s:x="0" s:y="10" s:pid="A"/>
    <g s:x="0" s:y="30" s:pid="B"/>
    <g s:x="10" s:y="35" s:pid="S"/>
    <g s:x="20" s:y="20" s:pid="Y"/>
  </g>
  <g s:type="mux" transform="translate(342.3333333333333,373.5)" s:width="20" s:height="40" id="cell_$techmap\muxcy3.$ternary$/home/docs/checkouts/readthedocs.org/user_builds/sphinxcontrib-verilog-diagrams/checkouts/latest/docs/verilog/muxcy.v:2$1">
    <s:alias val="$pmux"/>
    <s:alias val="$mux"/>
    <s:alias val="$_MUX_"/>
    <path d="M0,0 L20,10 L20,30 L0,40 Z" class="cell_$techmap\muxcy3.$ternary$/home/docs/checkouts/readthedocs.org/user_builds/sphinxcontrib-verilog-diagrams/checkouts/latest/docs/verilog/muxcy.v:2$1"/>
    <g s:x="0" s:y="10" s:pid="A"/>
    <g s:x="0" s:y="30" s:pid="B"/>
    <g s:x="10" s:y="35" s:pid="S"/>
    <g s:x="20" s:y="20" s:pid="Y"/>
  </g>
  <g s:type="reduce_xor" transform="translate(338,28.5)" s:width="33" s:height="25" id="cell_$techmap\xorcy0.$xor$/home/docs/checkouts/readthedocs.org/user_builds/sphinxcontrib-verilog-diagrams/checkouts/latest/docs/verilog/xorcy.v:2$2">
    <s:alias val="$xor"/>
    <s:alias val="$reduce_xor"/>
    <s:alias val="$_XOR_"/>
    <path d="M3,0 A30 25 0 0 1 3,25 A30 25 0 0 0 33,12.5 A30 25 0 0 0 3,0" class="cell_$techmap\xorcy0.$xor$/home/docs/checkouts/readthedocs.org/user_builds/sphinxcontrib-verilog-diagrams/checkouts/latest/docs/verilog/xorcy.v:2$2"/>
    <path d="M0,0 A30 25 0 0 1 0,25" class="cell_$techmap\xorcy0.$xor$/home/docs/checkouts/readthedocs.org/user_builds/sphinxcontrib-verilog-diagrams/checkouts/latest/docs/verilog/xorcy.v:2$2"/>
    <g s:x="3" s:y="5" s:pid="A"/>
    <g s:x="3" s:y="20" s:pid="B"/>
    <g s:x="33" s:y="12.5" s:pid="Y"/>
  </g>
  <g s:type="reduce_xor" transform="translate(338,90.5)" s:width="33" s:height="25" id="cell_$techmap\xorcy1.$xor$/home/docs/checkouts/readthedocs.org/user_builds/sphinxcontrib-verilog-diagrams/checkouts/latest/docs/verilog/xorcy.v:2$2">
    <s:alias val="$xor"/>
    <s:alias val="$reduce_xor"/>
    <s:alias val="$_XOR_"/>
    <path d="M3,0 A30 25 0 0 1 3,25 A30 25 0 0 0 33,12.5 A30 25 0 0 0 3,0" class="cell_$techmap\xorcy1.$xor$/home/docs/checkouts/readthedocs.org/user_builds/sphinxcontrib-verilog-diagrams/checkouts/latest/docs/verilog/xorcy.v:2$2"/>
    <path d="M0,0 A30 25 0 0 1 0,25" class="cell_$techmap\xorcy1.$xor$/home/docs/checkouts/readthedocs.org/user_builds/sphinxcontrib-verilog-diagrams/checkouts/latest/docs/verilog/xorcy.v:2$2"/>
    <g s:x="3" s:y="5" s:pid="A"/>
    <g s:x="3" s:y="20" s:pid="B"/>
    <g s:x="33" s:y="12.5" s:pid="Y"/>
  </g>
  <g s:type="reduce_xor" transform="translate(338,150.5)" s:width="33" s:height="25" id="cell_$techmap\xorcy2.$xor$/home/docs/checkouts/readthedocs.org/user_builds/sphinxcontrib-verilog-diagrams/checkouts/latest/docs/verilog/xorcy.v:2$2">
    <s:alias val="$xor"/>
    <s:alias val="$reduce_xor"/>
    <s:alias val="$_XOR_"/>
    <path d="M3,0 A30 25 0 0 1 3,25 A30 25 0 0 0 33,12.5 A30 25 0 0 0 3,0" class="cell_$techmap\xorcy2.$xor$/home/docs/checkouts/readthedocs.org/user_builds/sphinxcontrib-verilog-diagrams/checkouts/latest/docs/verilog/xorcy.v:2$2"/>
    <path d="M0,0 A30 25 0 0 1 0,25" class="cell_$techmap\xorcy2.$xor$/home/docs/checkouts/readthedocs.org/user_builds/sphinxcontrib-verilog-diagrams/checkouts/latest/docs/verilog/xorcy.v:2$2"/>
    <g s:x="3" s:y="5" s:pid="A"/>
    <g s:x="3" s:y="20" s:pid="B"/>
    <g s:x="33" s:y="12.5" s:pid="Y"/>
  </g>
  <g s:type="reduce_xor" transform="translate(338,281)" s:width="33" s:height="25" id="cell_$techmap\xorcy3.$xor$/home/docs/checkouts/readthedocs.org/user_builds/sphinxcontrib-verilog-diagrams/checkouts/latest/docs/verilog/xorcy.v:2$2">
    <s:alias val="$xor"/>
    <s:alias val="$reduce_xor"/>
    <s:alias val="$_XOR_"/>
    <path d="M3,0 A30 25 0 0 1 3,25 A30 25 0 0 0 33,12.5 A30 25 0 0 0 3,0" class="cell_$techmap\xorcy3.$xor$/home/docs/checkouts/readthedocs.org/user_builds/sphinxcontrib-verilog-diagrams/checkouts/latest/docs/verilog/xorcy.v:2$2"/>
    <path d="M0,0 A30 25 0 0 1 0,25" class="cell_$techmap\xorcy3.$xor$/home/docs/checkouts/readthedocs.org/user_builds/sphinxcontrib-verilog-diagrams/checkouts/latest/docs/verilog/xorcy.v:2$2"/>
    <g s:x="3" s:y="5" s:pid="A"/>
    <g s:x="3" s:y="20" s:pid="B"/>
    <g s:x="33" s:y="12.5" s:pid="Y"/>
  </g>
  <g s:type="outputExt" transform="translate(469,314)" s:width="30" s:height="20" id="cell_CO">
    <text x="15" y="-4" class="nodelabel cell_CO" s:attribute="ref">CO</text>
    <s:alias val="$_outputExt_"/>
    <path d="M30,0 L30,20 L15,20 L0,10 L15,0 Z" class="cell_CO"/>
    <g s:x="0" s:y="10" s:pid="A"/>
  </g>
  <g s:type="outputExt" transform="translate(469,123)" s:width="30" s:height="20" id="cell_O">
    <text x="15" y="-4" class="nodelabel cell_O" s:attribute="ref">O</text>
    <s:alias val="$_outputExt_"/>
    <path d="M30,0 L30,20 L15,20 L0,10 L15,0 Z" class="cell_O"/>
    <g s:x="0" s:y="10" s:pid="A"/>
  </g>
  <g s:type="inputExt" transform="translate(12,22)" s:width="30" s:height="20" id="cell_CI">
    <text x="15" y="-4" class="nodelabel cell_CI" s:attribute="ref">CI</text>
    <s:alias val="$_inputExt_"/>
    <path d="M0,0 L0,20 L15,20 L30,10 L15,0 Z" class="cell_CI"/>
    <g s:x="28" s:y="10" s:pid="Y"/>
  </g>
  <g s:type="inputExt" transform="translate(12,87)" s:width="30" s:height="20" id="cell_CYINIT">
    <text x="15" y="-4" class="nodelabel cell_CYINIT" s:attribute="ref">CYINIT</text>
    <s:alias val="$_inputExt_"/>
    <path d="M0,0 L0,20 L15,20 L30,10 L15,0 Z" class="cell_CYINIT"/>
    <g s:x="28" s:y="10" s:pid="Y"/>
  </g>
  <g s:type="inputExt" transform="translate(12,332.5)" s:width="30" s:height="20" id="cell_DI">
    <text x="15" y="-4" class="nodelabel cell_DI" s:attribute="ref">DI</text>
    <s:alias val="$_inputExt_"/>
    <path d="M0,0 L0,20 L15,20 L30,10 L15,0 Z" class="cell_DI"/>
    <g s:x="28" s:y="10" s:pid="Y"/>
  </g>
  <g s:type="inputExt" transform="translate(12,217.5)" s:width="30" s:height="20" id="cell_S">
    <text x="15" y="-4" class="nodelabel cell_S" s:attribute="ref">S</text>
    <s:alias val="$_inputExt_"/>
    <path d="M0,0 L0,20 L15,20 L30,10 L15,0 Z" class="cell_S"/>
    <g s:x="28" s:y="10" s:pid="Y"/>
  </g>
  <g s:type="join" transform="translate(428,303.5)" s:width="4" s:height="40" id="cell_$join$,2,3,4,5,">
    <rect width="5" height="80" class="splitjoinBody" s:generic="body"/>
    <s:alias val="$_join_"/>
    <g s:x="5" s:y="20" s:pid="out"/>
    <g transform="translate(0,10)" s:x="0" s:y="10" s:pid="in0">
      <text x="-3" y="-4" class="inputPortLabel">0</text>
    </g>
    <g transform="translate(0,30)" s:x="0" s:y="10" s:pid="in0">
      <text x="-3" y="-4" class="inputPortLabel">1</text>
    </g>
    <g transform="translate(0,50)" s:x="0" s:y="10" s:pid="in0">
      <text x="-3" y="-4" class="inputPortLabel">2</text>
    </g>
    <g transform="translate(0,70)" s:x="0" s:y="10" s:pid="in0">
      <text x="-3" y="-4" class="inputPortLabel">3</text>
    </g>
  </g>
  <g s:type="join" transform="translate(428,112.5)" s:width="4" s:height="40" id="cell_$join$,6,7,8,9,">
    <rect width="5" height="80" class="splitjoinBody" s:generic="body"/>
    <s:alias val="$_join_"/>
    <g s:x="5" s:y="20" s:pid="out"/>
    <g transform="translate(0,10)" s:x="0" s:y="10" s:pid="in0">
      <text x="-3" y="-4" class="inputPortLabel">0</text>
    </g>
    <g transform="translate(0,30)" s:x="0" s:y="10" s:pid="in0">
      <text x="-3" y="-4" class="inputPortLabel">1</text>
    </g>
    <g transform="translate(0,50)" s:x="0" s:y="10" s:pid="in0">
      <text x="-3" y="-4" class="inputPortLabel">2</text>
    </g>
    <g transform="translate(0,70)" s:x="0" s:y="10" s:pid="in0">
      <text x="-3" y="-4" class="inputPortLabel">3</text>
    </g>
  </g>
  <g s:type="split" transform="translate(98.8,322)" s:width="5" s:height="40" id="cell_$split$,12,13,14,15,">
    <rect width="5" height="80" class="splitjoinBody" s:generic="body"/>
    <s:alias val="$_split_"/>
    <g s:x="0" s:y="20" s:pid="in"/>
    <g transform="translate(4,10)" s:x="4" s:y="10" s:pid="out0">
      <text x="5" y="-4">0</text>
    </g>
    <g transform="translate(4,30)" s:x="4" s:y="10" s:pid="out0">
      <text x="5" y="-4">1</text>
    </g>
    <g transform="translate(4,50)" s:x="4" s:y="10" s:pid="out0">
      <text x="5" y="-4">2</text>
    </g>
    <g transform="translate(4,70)" s:x="4" s:y="10" s:pid="out0">
      <text x="5" y="-4">3</text>
    </g>
  </g>
  <g s:type="split" transform="translate(98.8,207)" s:width="5" s:height="40" id="cell_$split$,16,17,18,19,">
    <rect width="5" height="80" class="splitjoinBody" s:generic="body"/>
    <s:alias val="$_split_"/>
    <g s:x="0" s:y="20" s:pid="in"/>
    <g transform="translate(4,10)" s:x="4" s:y="10" s:pid="out0">
      <text x="5" y="-4">0</text>
    </g>
    <g transform="translate(4,30)" s:x="4" s:y="10" s:pid="out0">
      <text x="5" y="-4">1</text>
    </g>
    <g transform="translate(4,50)" s:x="4" s:y="10" s:pid="out0">
      <text x="5" y="-4">2</text>
    </g>
    <g transform="translate(4,70)" s:x="4" s:y="10" s:pid="out0">
      <text x="5" y="-4">3</text>
    </g>
  </g>
  <line x1="40" x2="58" y1="32" y2="32" class="net_10"/>
  <line x1="58" x2="58" y1="32" y2="82" class="net_10"/>
  <line x1="58" x2="86" y1="82" y2="82" class="net_10"/>
  <line x1="40" x2="86" y1="97" y2="97" class="net_11"/>
  <line x1="103.8" x2="143" y1="332.5" y2="332.5" class="net_12"/>
  <line x1="143" x2="143" y1="332.5" y2="69.5" class="net_12"/>
  <line x1="143" x2="163" y1="69.5" y2="69.5" class="net_12"/>
  <line x1="113" x2="163" y1="89.5" y2="89.5" class="net_20"/>
  <line x1="113" x2="123" y1="89.5" y2="89.5" class="net_20"/>
  <line x1="123" x2="123" y1="89.5" y2="33.5" class="net_20"/>
  <circle cx="123" cy="89.5" r="2" style="fill:#000" class="net_20"/>
  <line x1="123" x2="341" y1="33.5" y2="33.5" class="net_20"/>
  <line x1="103.8" x2="173" y1="217.5" y2="217.5" class="net_16"/>
  <line x1="173" x2="173" y1="217.5" y2="94.5" class="net_16"/>
  <line x1="103.8" x2="133" y1="217.5" y2="217.5" class="net_16"/>
  <line x1="133" x2="133" y1="217.5" y2="48.5" class="net_16"/>
  <circle cx="133" cy="217.5" r="2" style="fill:#000" class="net_16"/>
  <line x1="133" x2="341" y1="48.5" y2="48.5" class="net_16"/>
  <line x1="103.8" x2="203" y1="352.5" y2="352.5" class="net_13"/>
  <line x1="203" x2="203" y1="352.5" y2="175.5" class="net_13"/>
  <line x1="203" x2="223" y1="175.5" y2="175.5" class="net_13"/>
  <line x1="183" x2="213" y1="79.5" y2="79.5" class="net_2"/>
  <line x1="213" x2="213" y1="79.5" y2="195.5" class="net_2"/>
  <circle cx="213" cy="79.5" r="2" style="fill:#000" class="net_2"/>
  <line x1="213" x2="223" y1="195.5" y2="195.5" class="net_2"/>
  <line x1="183" x2="313" y1="79.5" y2="79.5" class="net_2"/>
  <line x1="313" x2="313" y1="79.5" y2="95.5" class="net_2"/>
  <circle cx="313" cy="79.5" r="2" style="fill:#000" class="net_2"/>
  <line x1="313" x2="341" y1="95.5" y2="95.5" class="net_2"/>
  <line x1="183" x2="401" y1="79.5" y2="79.5" class="net_2"/>
  <line x1="401" x2="401" y1="79.5" y2="314" class="net_2"/>
  <line x1="401" x2="428" y1="314" y2="314" class="net_2"/>
  <line x1="103.8" x2="233" y1="237.5" y2="237.5" class="net_17"/>
  <line x1="233" x2="233" y1="237.5" y2="200.5" class="net_17"/>
  <line x1="103.8" x2="193" y1="237.5" y2="237.5" class="net_17"/>
  <line x1="193" x2="193" y1="237.5" y2="110.5" class="net_17"/>
  <circle cx="193" cy="237.5" r="2" style="fill:#000" class="net_17"/>
  <line x1="193" x2="341" y1="110.5" y2="110.5" class="net_17"/>
  <line x1="103.8" x2="263" y1="372.5" y2="372.5" class="net_14"/>
  <line x1="263" x2="263" y1="372.5" y2="217.5" class="net_14"/>
  <line x1="263" x2="283" y1="217.5" y2="217.5" class="net_14"/>
  <line x1="243" x2="273" y1="185.5" y2="185.5" class="net_3"/>
  <line x1="273" x2="273" y1="185.5" y2="237.5" class="net_3"/>
  <circle cx="273" cy="185.5" r="2" style="fill:#000" class="net_3"/>
  <line x1="273" x2="283" y1="237.5" y2="237.5" class="net_3"/>
  <line x1="243" x2="313" y1="185.5" y2="185.5" class="net_3"/>
  <line x1="313" x2="313" y1="185.5" y2="155.5" class="net_3"/>
  <circle cx="313" cy="185.5" r="2" style="fill:#000" class="net_3"/>
  <line x1="313" x2="341" y1="155.5" y2="155.5" class="net_3"/>
  <line x1="243" x2="391" y1="185.5" y2="185.5" class="net_3"/>
  <line x1="391" x2="391" y1="185.5" y2="334" class="net_3"/>
  <line x1="391" x2="428" y1="334" y2="334" class="net_3"/>
  <line x1="103.8" x2="293" y1="257.5" y2="257.5" class="net_18"/>
  <line x1="293" x2="293" y1="257.5" y2="242.5" class="net_18"/>
  <line x1="103.8" x2="253" y1="257.5" y2="257.5" class="net_18"/>
  <line x1="253" x2="253" y1="257.5" y2="196.5" class="net_18"/>
  <line x1="253" x2="323" y1="196.5" y2="196.5" class="net_18"/>
  <line x1="323" x2="323" y1="196.5" y2="170.5" class="net_18"/>
  <circle cx="253" cy="257.5" r="2" style="fill:#000" class="net_18"/>
  <line x1="323" x2="341" y1="170.5" y2="170.5" class="net_18"/>
  <line x1="103.8" x2="123" y1="392.5" y2="392.5" class="net_15"/>
  <line x1="123" x2="123" y1="392.5" y2="383.5" class="net_15"/>
  <line x1="123" x2="342.3333333333333" y1="383.5" y2="383.5" class="net_15"/>
  <line x1="303" x2="323" y1="227.5" y2="227.5" class="net_4"/>
  <line x1="323" x2="323" y1="227.5" y2="403.5" class="net_4"/>
  <line x1="323" x2="342.3333333333333" y1="403.5" y2="403.5" class="net_4"/>
  <line x1="303" x2="323" y1="227.5" y2="227.5" class="net_4"/>
  <line x1="323" x2="323" y1="227.5" y2="286" class="net_4"/>
  <circle cx="323" cy="286" r="2" style="fill:#000" class="net_4"/>
  <line x1="323" x2="341" y1="286" y2="286" class="net_4"/>
  <line x1="303" x2="323" y1="227.5" y2="227.5" class="net_4"/>
  <line x1="323" x2="323" y1="227.5" y2="270" class="net_4"/>
  <line x1="323" x2="381" y1="270" y2="270" class="net_4"/>
  <line x1="381" x2="381" y1="270" y2="354" class="net_4"/>
  <circle cx="323" cy="270" r="2" style="fill:#000" class="net_4"/>
  <line x1="381" x2="428" y1="354" y2="354" class="net_4"/>
  <line x1="103.8" x2="153" y1="277.5" y2="277.5" class="net_19"/>
  <line x1="153" x2="153" y1="277.5" y2="301" class="net_19"/>
  <line x1="153" x2="313" y1="301" y2="301" class="net_19"/>
  <line x1="313" x2="313" y1="301" y2="423.5" class="net_19"/>
  <line x1="313" x2="352.3333333333333" y1="423.5" y2="423.5" class="net_19"/>
  <circle cx="313" cy="301" r="2" style="fill:#000" class="net_19"/>
  <line x1="352.3333333333333" x2="352.3333333333333" y1="423.5" y2="408.5" class="net_19"/>
  <line x1="103.8" x2="153" y1="277.5" y2="277.5" class="net_19"/>
  <line x1="153" x2="153" y1="277.5" y2="301" class="net_19"/>
  <line x1="153" x2="341" y1="301" y2="301" class="net_19"/>
  <line x1="434" x2="469" y1="324" y2="324" class="net_2,3,4,5"/>
  <line x1="434" x2="469" y1="133" y2="133" class="net_6,7,8,9"/>
  <line x1="362.3333333333333" x2="428.5" y1="393.5" y2="393.5" class="net_5"/>
  <line x1="428.5" x2="428.5" y1="393.5" y2="374.5" class="net_5"/>
  <line x1="371" x2="411" y1="41" y2="41" class="net_6"/>
  <line x1="411" x2="411" y1="41" y2="123" class="net_6"/>
  <line x1="411" x2="428" y1="123" y2="123" class="net_6"/>
  <line x1="371" x2="381" y1="103" y2="103" class="net_7"/>
  <line x1="381" x2="381" y1="103" y2="143" class="net_7"/>
  <line x1="381" x2="428" y1="143" y2="143" class="net_7"/>
  <line x1="371" x2="428" y1="163" y2="163" class="net_8"/>
  <line x1="371" x2="428.5" y1="293.5" y2="293.5" class="net_9"/>
  <line x1="428.5" x2="428.5" y1="293.5" y2="183.5" class="net_9"/>
  <line x1="40" x2="98.8" y1="342.5" y2="342.5" class="net_12,13,14,15"/>
  <line x1="40" x2="98.8" y1="227.5" y2="227.5" class="net_16,17,18,19"/>
</svg>
